<?xml version="1.0" encoding="UTF-8"?><svg id="a" xmlns="http://www.w3.org/2000/svg" viewBox="0 0 1002.06 253.24"><defs><style>.b{fill:#050507;}</style></defs><path class="b" d="M108.07,7.15l66.84-.38c9.11,0,15.88-.31,20.31-.94s8.28-1.77,11.59-3.43c1.65-1.25,2.66-1.52,3.04-.76,.49,1.52,.63,3.24,.38,5.13-1.27,3.8-1.65,13.67-1.14,29.62,0,1.77-.2,3.36-.58,4.74-.38,1.41-.79,2.38-1.24,2.95-.44,.56-.84,.84-1.22,.84-1.39,0-2.48-1.83-3.24-5.5-.38-3.42-1.27-6.93-2.66-10.54-1.39-3.61-2.84-6.17-4.36-7.69-1.9-1.65-5.16-2.86-9.79-3.61-4.61-.76-13.25-1.13-25.91-1.13-21.01,0-33.62,.25-37.79,.76-1.52,.25-2.28,2.33-2.28,6.26,0,4.68-.13,24.69-.38,60-.25,35.32-.38,55.77-.38,61.34-.13,10.51,.07,25.25,.58,44.24,.51,18.99,1.07,31.59,1.7,37.79,.76,6.44,2.35,10.84,4.75,13.19,2.41,2.33,7.09,4.53,14.05,6.55,4.3,1.01,6.46,2.33,6.46,3.98,0,1.77-2.6,2.66-7.79,2.66-2.41,0-7.67-.38-15.75-1.14-8.1-.76-15.01-1.14-20.7-1.14-7.72,0-15.7,.38-23.93,1.14-8.23,.76-12.84,1.14-13.85,1.14-4.68,0-7.03-1.14-7.03-3.42,0-1.52,2.6-2.71,7.79-3.61,8.85-1.25,14.61-3.66,17.27-7.2,2.66-3.54,4.3-10.07,4.94-19.57,1.14-16.71,1.87-53.7,2.19-110.99,.31-57.28,.21-86.24-.3-86.87-.38-3.16-1.27-4.75-2.66-4.75-4.56-.76-14.3-1.13-29.24-1.13-11.65,0-22.66,.51-33.04,1.52-3.92,.76-7.22,2.69-9.87,5.78-2.66,3.11-5.32,8.33-7.98,15.67-1.77,4.43-3.6,6.65-5.5,6.65-1.27,0-1.65-1.97-1.14-5.89,.38-2.41,1.07-6.05,2.08-10.91,1.01-4.88,1.77-9.09,2.28-12.63,.51-3.54,.76-6.84,.76-9.87C5.72,2.46,6.48,.51,7.62,.12c.76-.37,1.84,.14,3.24,1.52,1.77,2.17,5.88,3.49,12.34,3.99,16.71,1.01,45.01,1.52,84.89,1.52Z"/><path class="b" d="M238.33,7.91c0-.63,.59-1.17,1.8-1.62,1.21-.44,2.56-.66,4.08-.66,2.91,0,8.1,.25,15.57,.76,7.47,.51,13.17,.76,17.09,.76,7.34,0,22.81-.13,46.43-.38,23.62-.25,37.82-.38,42.63-.38,5.7,0,10.97-.13,15.85-.38,4.87-.25,7.5-.38,7.88-.38,1.77,0,3.04,2.03,3.8,6.08,1.39,15.57,2.28,24.43,2.66,26.58,.25,1.27,.25,2.53,0,3.8-.25,1.27-.76,1.9-1.52,1.9-1.27,0-2.66-1.77-4.18-5.32-5.7-14.05-12.72-21.96-21.07-23.73-3.92-.63-15.57-1.05-34.94-1.24-19.37-.2-31.97-.15-37.79,.08-1.14,.14-2,.45-2.56,.96-.56,.51-1.04,1.87-1.42,4.08-.38,2.22-.58,5.6-.58,10.16V118.04c0,4.05,.76,6.08,2.28,6.08h48.99c14.18,0,22.86-.89,26.02-2.66,3.16-1.77,6.51-6.71,10.06-14.81,1.14-2.79,2.48-4.18,3.99-4.18,1.27,0,1.9,1.39,1.9,4.18,0,1.27-.76,8.16-2.28,20.7-.63,6.2-.38,13.42,.76,21.63,.38,1.79,.41,3.26,.1,4.47-.32,1.2-.7,2.05-1.15,2.56-.44,.51-.84,.76-1.22,.76-.89,0-2.15-1.96-3.8-5.88-.13-.39-.23-.63-.3-.76-.06-.13-.15-.35-.28-.68-.13-.31-.25-.59-.38-.84-2.41-7.23-5.63-11.34-9.68-12.35-7.1-1.52-31.09-2.28-71.97-2.28-1.39,0-2.25,.38-2.56,1.14s-.48,2.79-.48,6.08c0,7.6,.2,22.79,.58,45.57,.38,22.79,.56,34.88,.56,36.28,0,2.79,.89,6.03,2.66,9.78,1.77,3.73,4.25,6.3,7.41,7.69,3.42,1.39,7.62,2.36,12.62,2.94,5.01,.56,13.64,.86,25.92,.86,16.71,0,27.85-.45,33.42-1.34,5.57-.89,10.25-3.04,14.05-6.46,2.15-2.15,6.78-8.36,13.87-18.61,3.29-4.43,5.63-6.65,7.02-6.65,1.9,0,2.03,2.35,.38,7.03-4.05,16.08-6.89,25.95-8.54,29.62-1.79,3.04-3.87,4.56-6.27,4.56-14.56,0-35.19-.25-61.9-.76-26.71-.51-44.94-.76-54.69-.76-5.19,0-12.84,.31-22.97,.96-10.14,.62-15.57,.94-16.33,.94-4.94,0-7.41-.89-7.41-2.66,0-1.14,2.35-2.33,7.03-3.6,7.22-1.01,12.56-3.29,16.05-6.84,3.47-3.54,5.27-9.44,5.4-17.67,1.27-41.27,1.9-101.53,1.9-180.77,0-10.76-1.27-18.07-3.8-21.93-2.53-3.87-7.47-6.55-14.81-8.07-3.92-.76-5.88-1.9-5.88-3.42Z"/><path class="b" d="M558.67,.51c1.27,0,2.35,1.32,3.24,3.98,.87,6.71,4.23,17.6,10.06,32.66,26.33,70.26,50.45,130.26,72.35,180.01,4.68,11.01,8.48,18.26,11.39,21.75,2.91,3.47,6.89,5.78,11.96,6.93,4.3,.63,6.46,1.83,6.46,3.6s-2.28,2.66-6.84,2.66c-1.39,0-5.47-.18-12.24-.58-6.78-.37-14.04-.56-21.75-.56-5.2,0-12.22,.25-21.08,.76-8.86,.51-14.61,.76-17.27,.76-4.43,0-6.65-.89-6.65-2.66,0-.76,.76-1.49,2.28-2.18,1.52-.7,3.24-1.17,5.13-1.43,7.22-1,11.98-2.94,14.33-5.78,2.33-2.86,3.39-6.74,3.14-11.69-.63-5.18-9.69-30.31-27.16-75.38-1.39-3.16-3.09-4.74-5.12-4.74-9.87,.51-34,.76-72.35,.76-1.52,0-3.49,2.46-5.88,7.4-9.11,22.91-15.84,41.72-20.13,56.4-4.06,13.67-4.06,22.53,0,26.58,2.66,2.64,8.09,4.81,16.33,6.44,3.91,1.15,5.88,2.48,5.88,3.99,0,1.77-2.59,2.66-7.78,2.66-1.9,0-7.31-.32-16.25-.94-8.92-.65-15.98-.96-21.17-.96-3.29,0-7.75,.31-13.38,.96-5.64,.62-9.97,.94-13.01,.94-4.43,0-6.65-.89-6.65-2.66,0-1.39,2.59-2.59,7.79-3.6,4.81-.89,8.51-1.84,11.11-2.86,2.59-1.01,5.27-3.04,8.06-6.08,2.79-3.04,5.32-6.71,7.6-11.01,2.28-4.3,5.39-10.83,9.31-19.55,12.03-25.95,34.74-81.72,68.16-167.3,1.52-4.05,2.28-7.65,2.28-10.83,0-2.52,.38-3.98,1.14-4.36,2.79-2.03,5.67-4.91,8.64-8.64,2.98-3.74,4.78-7.57,5.42-11.49,.13-.25,.35-.79,.66-1.62,.32-.82,.6-1.42,.86-1.8,.25-.38,.63-.56,1.14-.56Zm18.81,135.76c.49-1.39,.49-2.71,0-3.99-11.9-33.53-22.53-60.88-31.9-82.03-.89-2.39-1.97-2.14-3.24,.76-7.98,19.13-18.23,46.78-30.76,82.99-.25,.38-.25,1.04,0,2,.25,.94,.7,1.42,1.34,1.42,4.94,.25,15.12,.38,30.56,.38,19.75,0,31.09-.51,34-1.52Z"/><path class="b" d="M699.56,7.53c0-1.52,2.35-2.28,7.03-2.28,29.75,1.27,44.74,1.9,45,1.9,1.9,0,3.61,1.84,5.13,5.51,7.98,17.72,22.72,47.98,44.24,90.75,21.52,42.8,38.81,76.4,51.85,100.84,.76,.89,1.27,1.21,1.52,.94,.25-.24,.87-1.07,1.9-2.46,37.98-72.54,65.19-125.58,81.65-159.13,4.94-11.01,8.86-21.46,11.77-31.34l.38-.76c.11-.49,.31-.97,.56-1.42,.25-.44,.53-.89,.86-1.32,.31-.45,.63-.83,.94-1.14,.32-.32,.68-.48,1.05-.48,3.53,0,10.56-.38,21.07-1.14,10.51-.76,17.6-1.14,21.27-1.14,4.18,0,6.27,.76,6.27,2.28,0,.76-.63,1.46-1.9,2.08-1.27,.65-2.6,1.08-3.99,1.34-5.95,1.39-10.46,2.73-13.57,3.98-3.11,1.28-5.57,3.26-7.41,5.99-1.83,2.71-2.97,5.57-3.4,8.54-.45,2.98-.86,7.69-1.24,14.15-.76,13.29-1.14,39.75-1.14,79.37,0,37.22,.76,68.36,2.28,93.42,.49,7.6,1.52,13.29,3.04,17.09,1.52,3.8,3.5,6.55,5.98,8.26,2.48,1.72,6.48,3.46,12.05,5.23,4.18,1.39,6.27,2.84,6.27,4.36s-2.35,2.28-7.03,2.28c-2.15,0-8.23-.38-18.23-1.14-10-.76-16.89-1.14-20.69-1.14-6.2,0-12.86,.13-19.95,.38-7.09,.25-11.2,.38-12.34,.38-5.44,0-8.17-1.01-8.17-3.04,0-.76,.83-1.49,2.48-2.18,1.63-.7,3.42-1.17,5.32-1.42,8.1-2.15,13.35-5.77,15.75-10.83,2.41-5.06,3.92-15.7,4.56-31.9,.76-14.05,1.14-61.65,1.14-142.79,0-2.03-.31-3.04-.94-3.04-.38-.13-.76,.38-1.14,1.52-2.03,4.05-11.52,22.88-28.48,56.49-16.96,33.62-30.48,60.64-40.54,81.09-10.07,20.44-17.89,36.92-23.46,49.47-1.9,4.68-3.85,7.02-5.88,7.02-1.27,0-3.99-4.56-8.17-13.67-24.31-52.28-52.54-111.47-84.69-177.55-.89-1.63-1.6-2.33-2.18-2.08s-1.04,1.59-1.42,3.99c-.76,11.52-1.9,35.7-3.42,72.52-1.52,36.85-2.28,59.19-2.28,67.04,0,13.8,.76,23.29,2.28,28.48,1.65,7.85,8.23,12.98,19.75,15.37,4.43,.76,6.64,2.1,6.64,3.99,0,2.28-2.59,3.16-7.78,2.66-15.84-1.27-26.71-1.9-32.66-1.9-5.57,0-11.59,.38-18.05,1.14s-9.87,1.14-10.25,1.14c-4.68,0-7.02-.89-7.02-2.66,0-1.65,2.33-2.97,7.02-3.98,5.57-1.01,9.82-2.5,12.73-4.47,2.91-1.96,5.63-4.59,8.16-7.88,3.29-5.06,6.01-19.04,8.17-41.97,1.27-12.77,2.87-35.43,4.84-67.97,1.97-32.53,2.94-54.63,2.94-66.28s-.6-18.96-1.8-23.45c-1.21-4.5-3.59-8.83-7.12-13.01-1.03-1.14-2-2.12-2.94-2.94-.96-.83-2-1.59-3.14-2.28-1.14-.7-2.1-1.24-2.86-1.62-.76-.38-1.83-.79-3.22-1.24-1.39-.44-2.35-.76-2.86-.94-.51-.2-1.58-.48-3.22-.86-1.65-.38-2.66-.63-3.04-.76-4.18-.89-6.27-2.03-6.27-3.42Z"/></svg>