<?xml version="1.0" encoding="UTF-8"?><svg id="a" xmlns="http://www.w3.org/2000/svg" viewBox="0 0 716.25 768.79"><path d="M4.62,20.22c0-4.62,6.71-6.93,20.18-6.93,67.72,0,117.74-1.54,150.06-4.62C227.96,2.91,262.59,0,278.75,0c104.28,0,191.41,21.38,261.48,64.09,24.97,15.39,47.58,33.01,67.81,52.8,20.18,19.84,38.65,42.54,55.41,68.11,16.72,25.61,29.71,54.94,38.95,88.03,9.23,33.09,13.85,68.32,13.85,105.6,0,45.83-6.07,88.03-18.17,126.72-12.14,38.65-28.22,71.65-48.23,98.97-20.01,27.32-43.78,51.65-71.27,73.02-27.49,21.33-55.41,38.35-83.67,51.09-28.3,12.66-58.23,22.87-89.78,30.57-28.82,6.54-64.99,9.79-108.51,9.79-10,0-39.59-1.71-88.84-5.17-58.53-3.85-93.16-5.77-103.89-5.77-12.36,0-28.3,.38-47.93,1.15-19.62,.77-30.78,1.15-33.48,1.15-15.01,0-22.49-3.08-22.49-9.23,0-4.62,6.5-7.52,19.58-8.64,21.55-3.51,36-9.23,43.31-17.36,7.31-8.04,11.54-23.43,12.7-46.17,3.08-24.97,4.62-103.89,4.62-236.6,0-193.93-1.92-310.56-5.77-349.81-1.15-21.51-4.83-36.13-10.99-43.87-6.16-7.65-20.18-13.85-42.11-18.47-11.16-1.11-16.72-4.4-16.72-9.79Zm256.26,0c-30.83,0-56.39,4.06-76.79,12.1-8.47,1.97-12.7,12.53-12.7,31.77-2.69,46.94-4.06,145.45-4.06,295.51,0,85.81,2.52,170.46,7.52,253.96,2.31,31.94,6.16,55.62,11.54,71.01,5.39,15.39,15.22,28.47,29.41,39.25,21.98,17.27,53.87,25.95,95.85,25.95,53.1,0,96.54-9.41,130.4-28.26,16.16-8.85,31.47-18.85,45.92-30.01,14.41-11.16,29.5-26.17,45.32-45.06,15.73-18.81,29.33-39.5,40.66-62.04,11.33-22.49,20.78-50.02,28.3-82.51,7.48-32.54,11.24-67.42,11.24-104.79,0-56.14-9.15-108.51-27.41-156.99-18.3-48.48-45.53-89.44-81.7-122.92-34.97-31.94-71.57-56.09-109.62-72.42-38.14-16.37-82.77-24.54-133.9-24.54Z"/></svg>