<?xml version="1.0" encoding="UTF-8"?><svg id="a" xmlns="http://www.w3.org/2000/svg" viewBox="0 0 1253.49 258.61"><defs><style>.b{fill:#050507;}</style></defs><path class="b" d="M1.52,8.54c0-1.52,2.21-2.28,6.64-2.28,22.28,0,38.74-.51,49.37-1.52,17.47-1.9,28.86-2.86,34.18-2.86,34.31,0,62.97,7.03,86.03,21.08,8.21,5.06,15.66,10.86,22.31,17.37,6.64,6.53,12.72,14,18.23,22.41,5.5,8.43,9.78,18.07,12.81,28.96,3.04,10.89,4.56,22.48,4.56,34.74,0,15.08-2,28.96-5.98,41.69-3.99,12.72-9.28,23.57-15.87,32.56-6.58,8.99-14.4,16.99-23.45,24.02-9.04,7.02-18.23,12.62-27.53,16.81-9.31,4.16-19.16,7.53-29.54,10.06-9.48,2.15-21.38,3.22-35.7,3.22-3.29,0-13.02-.56-29.23-1.7-19.26-1.27-30.65-1.9-34.18-1.9-4.06,0-9.31,.13-15.77,.38-6.46,.25-10.13,.38-11.01,.38-4.94,0-7.4-1.01-7.4-3.04,0-1.52,2.14-2.48,6.44-2.84,7.09-1.15,11.84-3.04,14.25-5.71,2.41-2.64,3.8-7.71,4.18-15.19,1.01-8.21,1.52-34.18,1.52-77.84,0-63.8-.63-102.17-1.9-115.09-.38-7.08-1.59-11.89-3.61-14.43-2.03-2.52-6.64-4.56-13.85-6.08-3.67-.37-5.5-1.45-5.5-3.22Zm84.31,0c-10.14,0-18.55,1.34-25.26,3.98-2.79,.65-4.18,4.12-4.18,10.45-.89,15.44-1.34,47.85-1.34,97.22,0,28.23,.83,56.08,2.48,83.55,.76,10.51,2.03,18.3,3.8,23.36,1.77,5.06,5.01,9.37,9.68,12.91,7.23,5.68,17.72,8.54,31.54,8.54,17.47,0,31.76-3.09,42.9-9.3,5.32-2.91,10.35-6.2,15.11-9.87,4.74-3.67,9.71-8.61,14.91-14.83,5.18-6.19,9.65-13,13.38-20.41,3.73-7.4,6.84-16.46,9.31-27.15,2.46-10.7,3.7-22.18,3.7-34.47,0-18.47-3.01-35.7-9.02-51.65-6.02-15.95-14.98-29.43-26.88-40.44-11.51-10.51-23.55-18.45-36.06-23.83-12.55-5.39-27.23-8.07-44.05-8.07Z"/><path class="b" d="M381.66,0c1.27,0,2.35,1.32,3.24,3.98,.89,6.71,4.25,17.6,10.07,32.66,26.32,70.26,50.44,130.26,72.34,180.01,4.68,11.01,8.48,18.26,11.39,21.75,2.91,3.47,6.91,5.78,11.97,6.93,4.29,.63,6.44,1.83,6.44,3.6s-2.28,2.66-6.84,2.66c-1.39,0-5.47-.18-12.24-.58-6.78-.37-14.02-.56-21.75-.56-5.19,0-12.22,.25-21.07,.76-8.86,.51-14.63,.76-17.29,.76-4.43,0-6.65-.89-6.65-2.66,0-.76,.76-1.49,2.28-2.18,1.52-.7,3.24-1.17,5.13-1.43,7.22-1,12-2.94,14.33-5.78,2.35-2.86,3.39-6.74,3.14-11.69-.63-5.18-9.69-30.31-27.16-75.38-1.39-3.16-3.09-4.74-5.12-4.74-9.87,.51-33.98,.76-72.35,.76-1.52,0-3.47,2.46-5.88,7.4-9.11,22.91-15.82,41.72-20.13,56.4-4.05,13.67-4.05,22.53,0,26.58,2.66,2.64,8.1,4.81,16.33,6.44,3.92,1.15,5.88,2.48,5.88,3.99,0,1.77-2.59,2.66-7.78,2.66-1.9,0-7.31-.32-16.23-.94-8.93-.65-15.99-.96-21.17-.96-3.31,0-7.76,.31-13.39,.96-5.64,.62-9.97,.94-13.01,.94-4.43,0-6.65-.89-6.65-2.66,0-1.39,2.6-2.59,7.79-3.6,4.81-.89,8.51-1.84,11.11-2.86,2.59-1.01,5.29-3.04,8.07-6.08,2.77-3.04,5.32-6.71,7.6-11.01,2.28-4.3,5.37-10.83,9.3-19.55,12.03-25.95,34.76-81.72,68.18-167.3,1.52-4.05,2.28-7.65,2.28-10.83,0-2.52,.37-3.98,1.13-4.36,2.79-2.03,5.67-4.91,8.65-8.64,2.97-3.74,4.77-7.57,5.42-11.49,.11-.25,.34-.79,.66-1.62,.31-.82,.59-1.42,.86-1.8,.25-.38,.62-.56,1.13-.56Zm18.81,135.76c.51-1.39,.51-2.71,0-3.99-11.9-33.53-22.53-60.88-31.9-82.03-.89-2.39-1.97-2.14-3.22,.76-7.99,19.13-18.23,46.78-30.78,82.99-.25,.38-.25,1.04,0,2,.25,.94,.7,1.42,1.34,1.42,4.94,.25,15.12,.38,30.56,.38,19.75,0,31.09-.51,34-1.52Z"/><path class="b" d="M494.18,7.4c0-1.52,2.39-2.28,7.2-2.28,3.04,0,8.81,.25,17.29,.76s14.18,.76,17.09,.76c4.68,0,11.39-.25,20.13-.76,8.73-.51,14.05-.76,15.95-.76,4.94,0,7.41,.76,7.41,2.28,0,2.03-2.6,3.49-7.79,4.36-4.43,.52-7.82,1.81-10.16,3.9-2.35,2.1-3.52,4.4-3.52,6.93,0,2.91,1.58,8.99,4.75,18.23,3.91,11.65,14.43,39.4,31.51,83.27,17.1,43.86,27.74,70.03,31.9,78.51,.25,.89,.65,1.39,1.15,1.52,.37,0,.62-.25,.76-.76,2.9-6.08,12.46-29.72,28.67-70.92,16.2-41.21,26.08-66.94,29.62-77.19,5.19-14.18,7.79-24.31,7.79-30.38,0-4.18-1.52-7.24-4.56-9.21-3.04-1.96-7.86-3.7-14.43-5.22-4.44-.89-6.65-2.03-6.65-3.42,0-1.52,2.59-2.28,7.78-2.28,2.93,0,8.36,.32,16.34,.94,7.96,.65,13.28,.96,15.95,.96,3.15,0,7.75-.25,13.76-.76,6.02-.51,9.97-.76,11.87-.76,4.43,0,6.64,.51,6.64,1.52,0,1.77-2.59,3.29-7.78,4.56-7.34,1.9-13.1,5.34-17.29,10.35-4.16,4.99-9.3,14.4-15.37,28.19-2.15,4.82-5.92,13.71-11.29,26.68-5.39,12.98-13.59,32.91-24.59,59.82-11.03,26.89-21.34,52-30.96,75.28-8.99,22.67-14.18,36.78-15.57,42.35-.38,1.27-.93,2.38-1.62,3.32-.69,.96-1.22,1.42-1.62,1.42-1.01,0-1.8-.56-2.36-1.7-.58-1.14-1.31-3.29-2.19-6.46-6.19-18.48-20.25-55.64-42.14-111.46-21.91-55.84-36.78-92.54-44.63-110.13-2.41-5.19-5.22-9.21-8.45-12.07-3.22-2.84-7.68-4.71-13.39-5.6-4.81-.76-7.2-2.03-7.2-3.8Z"/><path class="b" d="M755.72,7.02c0-1.01,.51-1.65,1.52-1.9,1.01-.25,2.98-.38,5.89-.38,1.9,0,7.6,.32,17.09,.94,9.49,.65,16.4,.96,20.7,.96,4.67,0,10.59-.2,17.75-.56,7.15-.39,11.67-.58,13.57-.58,4.18,0,6.26,.76,6.26,2.28,0,1.77-2.08,3.11-6.26,3.98-7.72,1.52-11.58,3.8-11.58,6.84,0,2.8,2.21,7.74,6.64,14.83,.63,1.01,2.94,4.92,6.93,11.76,3.98,6.84,7.78,13.39,11.39,19.66,3.6,6.26,7.65,13.14,12.15,20.59,4.49,7.48,8.51,14.09,12.05,19.85,3.54,5.77,6.2,9.85,7.98,12.25,2.53,1.27,4.11,1.39,4.74,.38,23.04-37.85,38.43-63.42,46.15-76.71,5.95-9.75,8.93-16.58,8.93-20.51,0-4.81-4.75-8.1-14.25-9.87-4.43-1.14-6.65-2.41-6.65-3.8,0-1.27,2.1-1.9,6.27-1.9,3.67,0,8.36,.25,14.05,.76s10.31,.76,13.85,.76,8.45-.31,15.11-.96c6.64-.62,10.79-.94,12.43-.94,4.68,0,7.03,.76,7.03,2.28,0,1.9-2.86,3.16-8.55,3.8-6.58,1.27-11.9,3.45-15.95,6.55-4.05,3.09-8.3,7.57-12.72,13.38-4.7,6.08-10.17,13.87-16.43,23.36-6.27,9.49-11.39,17.47-15.39,23.93-3.98,6.46-9.24,15.09-15.75,25.92-6.53,10.82-10.1,16.74-10.73,17.75-3.16,5.82-5.01,10.89-5.5,15.19-.51,8.36-.76,26.15-.76,53.35,0,11.53,.25,21.72,.76,30.58,.37,9.24,1.6,15.44,3.7,18.61,2.08,3.16,6.54,5.39,13.38,6.65,5.44,.76,8.17,2.08,8.17,3.98,0,1.52-2.35,2.28-7.02,2.28-5.32,0-11.72-.32-19.19-.94-7.47-.65-13.55-.96-18.23-.96s-10.23,.25-16.61,.76c-6.4,.51-11.29,.76-14.73,.76-5.43,0-8.16-1.01-8.16-3.04,0-1.52,2.84-2.71,8.55-3.6,7.6-.89,12.49-2.63,14.71-5.23,2.21-2.59,3.63-7.81,4.28-15.67,1.01-10.37,1.52-27.08,1.52-50.13,0-17.33-.27-29.43-.76-36.26-.51-4.05-1.41-6.89-2.67-8.55-6.84-12.39-16.61-29.14-29.33-50.21-12.73-21.08-21.75-35.42-27.06-43.01-6.33-8.61-11.67-14.71-16.05-18.33-4.36-3.6-9.4-5.98-15.09-7.12-5.44-1.01-8.17-2.28-8.17-3.8Z"/><path class="b" d="M1019.37,8.54c0-1.52,2.21-2.28,6.64-2.28,22.28,0,38.74-.51,49.37-1.52,17.47-1.9,28.86-2.86,34.18-2.86,34.31,0,62.99,7.03,86.03,21.08,8.23,5.06,15.67,10.86,22.31,17.37,6.64,6.53,12.72,14,18.23,22.41,5.51,8.43,9.78,18.07,12.81,28.96,3.04,10.89,4.56,22.48,4.56,34.74,0,15.08-1.98,28.96-5.98,41.69-3.99,12.72-9.28,23.57-15.85,32.56-6.58,8.99-14.4,16.99-23.45,24.02-9.06,7.02-18.23,12.62-27.54,16.81-9.31,4.16-19.16,7.53-29.52,10.06-9.49,2.15-21.39,3.22-35.7,3.22-3.31,0-13.04-.56-29.24-1.7-19.24-1.27-30.64-1.9-34.18-1.9-4.05,0-9.31,.13-15.77,.38-6.46,.25-10.13,.38-11.01,.38-4.94,0-7.4-1.01-7.4-3.04,0-1.52,2.15-2.48,6.46-2.84,7.09-1.15,11.83-3.04,14.23-5.71,2.41-2.64,3.8-7.71,4.18-15.19,1.01-8.21,1.52-34.18,1.52-77.84,0-63.8-.63-102.17-1.9-115.09-.38-7.08-1.59-11.89-3.6-14.43-2.03-2.52-6.65-4.56-13.87-6.08-3.67-.37-5.5-1.45-5.5-3.22Zm84.31,0c-10.13,0-18.55,1.34-25.26,3.98-2.79,.65-4.18,4.12-4.18,10.45-.89,15.44-1.32,47.85-1.32,97.22,0,28.23,.82,56.08,2.46,83.55,.76,10.51,2.03,18.3,3.8,23.36,1.77,5.06,5.01,9.37,9.69,12.91,7.22,5.68,17.72,8.54,31.52,8.54,17.47,0,31.77-3.09,42.91-9.3,5.32-2.91,10.34-6.2,15.09-9.87,4.75-3.67,9.71-8.61,14.91-14.83,5.19-6.19,9.65-13,13.39-20.41,3.73-7.4,6.84-16.46,9.3-27.15,2.46-10.7,3.7-22.18,3.7-34.47,0-18.47-3.01-35.7-9.02-51.65-6.01-15.95-14.98-29.43-26.87-40.44-11.52-10.51-23.55-18.45-36.08-23.83-12.53-5.39-27.23-8.07-44.05-8.07Z"/></svg>